<svg width="45" height="45" viewBox="0 0 45 45" fill="none" xmlns="http://www.w3.org/2000/svg">
<circle cx="22.5" cy="22.5" r="22.5" fill="#1269E9"/>
<path d="M33.7931 16.5214C33.6658 16.013 33.4066 15.5471 33.0416 15.1708C32.6766 14.7946 32.2189 14.5213 31.7145 14.3786C29.8716 13.9286 22.5002 13.9286 22.5002 13.9286C22.5002 13.9286 15.1288 13.9286 13.2859 14.4214C12.7815 14.5641 12.3237 14.8374 11.9588 15.2137C11.5938 15.5899 11.3346 16.0558 11.2073 16.5643C10.8701 18.4345 10.7051 20.3318 10.7145 22.2322C10.7025 24.1469 10.8674 26.0586 11.2073 27.9429C11.3477 28.4356 11.6127 28.8837 11.9768 29.2441C12.3409 29.6045 12.7918 29.8648 13.2859 30C15.1288 30.4929 22.5002 30.4929 22.5002 30.4929C22.5002 30.4929 29.8716 30.4929 31.7145 30C32.2189 29.8573 32.6766 29.584 33.0416 29.2078C33.4066 28.8315 33.6658 28.3657 33.7931 27.8572C34.1277 26.001 34.2927 24.1182 34.2859 22.2322C34.2979 20.3175 34.1329 18.4058 33.7931 16.5214V16.5214Z" fill="white"/>
<path d="M20.0889 25.7357L26.2496 22.2321L20.0889 18.7286V25.7357Z" fill="#1269E9"/>
</svg>
