<svg width="45" height="45" viewBox="0 0 45 45" fill="none" xmlns="http://www.w3.org/2000/svg">
<circle cx="22.5" cy="22.5" r="22.5" fill="#1269E9"/>
<path d="M27.8605 11.7855H17.1462C14.1875 11.7855 11.7891 14.1839 11.7891 17.1426V27.8569C11.7891 30.8156 14.1875 33.214 17.1462 33.214H27.8605C30.8192 33.214 33.2176 30.8156 33.2176 27.8569V17.1426C33.2176 14.1839 30.8192 11.7855 27.8605 11.7855Z" stroke="white" stroke-width="2" stroke-linecap="round" stroke-linejoin="round"/>
<path d="M26.7897 21.8247C26.922 22.7164 26.7696 23.6271 26.3545 24.4273C25.9393 25.2274 25.2824 25.8763 24.4772 26.2815C23.672 26.6868 22.7595 26.8279 21.8695 26.6847C20.9795 26.5415 20.1573 26.1213 19.5199 25.4838C18.8825 24.8464 18.4623 24.0242 18.3191 23.1343C18.1759 22.2443 18.3169 21.3318 18.7222 20.5266C19.1275 19.7214 19.7764 19.0645 20.5765 18.6493C21.3766 18.2341 22.2873 18.0818 23.179 18.214C24.0886 18.3489 24.9306 18.7727 25.5808 19.4229C26.231 20.0731 26.6548 20.9152 26.7897 21.8247Z" stroke="white" stroke-width="2" stroke-linecap="round" stroke-linejoin="round"/>
<path d="M28.3965 16.6069H28.4072" stroke="white" stroke-width="2" stroke-linecap="round" stroke-linejoin="round"/>
</svg>
