<svg width="45" height="45" viewBox="0 0 45 45" fill="none" xmlns="http://www.w3.org/2000/svg">
<circle cx="22.5" cy="22.5" r="22.5" fill="#1269E9"/>
<path d="M22.603 17.3409C21.2069 17.3409 19.9 17.7279 18.7866 18.4028V11.7858H13.9287V31.7633H18.7866V31.081C19.9 31.7534 21.2069 32.1429 22.603 32.1429C26.6872 32.1429 30.0001 28.8282 30.0001 24.7419C30.0001 20.6531 26.6896 17.3409 22.603 17.3409ZM21.8863 27.7266C20.1753 27.7266 18.7866 26.3372 18.7866 24.6253C18.7866 22.9133 20.1753 21.5239 21.8863 21.5239C23.5974 21.5239 24.986 22.9133 24.986 24.6253C24.986 26.3397 23.5974 27.7266 21.8863 27.7266Z" fill="white"/>
</svg>
